<svg version="1.1" xmlns="http://www.w3.org/2000/svg" viewBox="0 0 895.7222222222224 791.6666666666669" width="100%" height="100%">
  <!-- svg-source:excalidraw -->
  
  <defs>
    <style>
      @font-face {
        font-family: "Virgil";
        src: url("https://excalidraw.com/Virgil.woff2");
      }
      @font-face {
        font-family: "Cascadia";
        src: url("https://excalidraw.com/Cascadia.woff2");
      }
    </style>
  </defs>
  <rect x="0" y="0" width="100%" height="100%" fill="rgba(252,252,252,0.8)"></rect><g stroke-linecap="round" transform="translate(371.3333333333332 10) rotate(0 61 50.5)"><path d="M79.22 2.9 C88.59 4.75, 98.67 10.16, 105.69 16.46 C112.71 22.75, 119.26 32.34, 121.33 40.67 C123.41 49.01, 121.6 58.39, 118.15 66.48 C114.69 74.57, 108.01 83.5, 100.59 89.21 C93.17 94.93, 83.29 99.21, 73.63 100.78 C63.98 102.35, 52.33 101.28, 42.64 98.63 C32.95 95.98, 22.36 91.05, 15.52 84.88 C8.67 78.71, 3.53 70.06, 1.59 61.6 C-0.35 53.13, 0.61 42.26, 3.89 34.09 C7.17 25.92, 13.79 18.15, 21.26 12.57 C28.73 6.99, 37.26 1.61, 48.68 0.62 C60.11 -0.37, 81.48 4.71, 89.79 6.65 C98.1 8.6, 98.86 11.59, 98.53 12.28 M47.69 0.01 C57.25 -2.1, 71.87 0.33, 81.56 3.28 C91.25 6.23, 99.44 11.64, 105.83 17.69 C112.21 23.75, 117.8 31.34, 119.88 39.59 C121.96 47.83, 121.38 58.94, 118.31 67.15 C115.24 75.36, 108.8 83.29, 101.45 88.86 C94.09 94.44, 84.05 99.25, 74.21 100.59 C64.36 101.93, 52.15 99.64, 42.39 96.88 C32.62 94.13, 22.24 90.07, 15.6 84.05 C8.97 78.03, 4.8 68.89, 2.58 60.76 C0.35 52.62, -0.87 43.14, 2.26 35.23 C5.38 27.32, 13.47 19.21, 21.32 13.31 C29.17 7.4, 44.51 1.85, 49.35 -0.22 C54.18 -2.28, 49.97 -0.3, 50.31 0.91" stroke="#000000" stroke-width="1" fill="none"></path></g><g transform="translate(376.3333333333332 48) rotate(0 56 11.5)"><text x="56" y="17" font-family="Virgil, Segoe UI Emoji" font-size="20px" fill="#000000" text-anchor="middle" style="white-space: pre;" direction="ltr">Start</text></g><g stroke-linecap="round" transform="translate(260.3333333333332 173) rotate(0 196.5 48)"><path d="M-0.54 -0.73 C125.24 -1.08, 251.74 -2.02, 393.68 0.42 M0.56 0.19 C88.89 2.64, 176.94 2.2, 393.47 0.19 M394.59 -0.39 C393.75 36.66, 392.64 75.84, 392.56 96.3 M392.6 -0.26 C392.2 32.05, 393.78 65.78, 392.33 96.34 M393.35 96.15 C300.04 96.27, 206.87 96.03, -1.12 96.34 M392.63 96.36 C269.33 96.86, 145.33 96.11, 0.39 95.59 M0.13 95.89 C0.28 60.15, -2.41 23.98, -1.69 -0.95 M-0.28 96.29 C0.98 58.27, -0.22 23.13, -0.54 -0.28" stroke="#000000" stroke-width="1" fill="none"></path></g><g transform="translate(345.3333333333332 215) rotate(0 109.5 13)"><text x="0" y="18" font-family="Virgil, Segoe UI Emoji" font-size="20px" fill="#000000" text-anchor="start" style="white-space: pre;" direction="ltr">Read Numbers A, B, C</text></g><g stroke-linecap="round"><g transform="translate(440.9690258707738 110.44197584538534) rotate(0 6.166465559855737 25.09564587437174)"><path d="M0.39 -1.07 C2.32 7.67, 8.88 42.81, 10.78 51.27 M-0.86 0.98 C1.53 9.48, 11.17 41.26, 13.19 49.51" stroke="#000000" stroke-width="1" fill="none"></path></g><g transform="translate(440.9690258707738 110.44197584538534) rotate(0 6.166465559855737 25.09564587437174)"><path d="M-3.65 27.46 C2.68 34.11, 3.57 38.54, 11.31 51.46 M-1.66 28.52 C4.13 35.64, 9.22 43.09, 12.69 50.31" stroke="#000000" stroke-width="1" fill="none"></path></g><g transform="translate(440.9690258707738 110.44197584538534) rotate(0 6.166465559855737 25.09564587437174)"><path d="M13.43 22.72 C15.66 30.55, 12.5 36.1, 11.31 51.46 M15.41 23.78 C15.58 32.62, 14.99 41.65, 12.69 50.31" stroke="#000000" stroke-width="1" fill="none"></path></g></g><g stroke-linecap="round" transform="translate(302.3333333333332 323) rotate(0 150.5 41)"><path d="M152.7 0.39 C210.95 17.1, 271.03 33.96, 302.57 40.99 M150.58 -0.56 C208.28 15.73, 264.95 32.3, 301.12 41.61 M299.71 43.32 C262.68 49.69, 223.53 60.19, 149.63 81.38 M301.85 42.38 C252.19 54.65, 202.34 68.97, 151.93 82.25 M152 82.38 C113.61 74.51, 78.24 65.3, 1.49 43.69 M151.23 81.15 C105.06 69.65, 58 59.07, -0.65 41.82 M-1.94 40.3 C42.21 28.97, 81.38 19.61, 150.89 1.22 M0.59 41.49 C48.77 28.13, 99.08 13.84, 151.48 0.62" stroke="#000000" stroke-width="1" fill="none"></path></g><g transform="translate(307.3333333333332 341) rotate(0 145.5 11.5)"><text x="145.5" y="17" font-family="Virgil, Segoe UI Emoji" font-size="20px" fill="#000000" text-anchor="middle" style="white-space: pre;" direction="ltr">A &gt; B</text></g><g stroke-linecap="round"><g transform="translate(441.65117960205345 267.7209879226927) rotate(0 5.352589288887259 24.766941184910024)"><path d="M0.28 -1.02 C2.25 7.14, 9.98 40.78, 11.73 49.55 M-1.03 1.06 C0.82 9.28, 9.19 42.44, 10.98 50.55" stroke="#000000" stroke-width="1" fill="none"></path></g><g transform="translate(441.65117960205345 267.7209879226927) rotate(0 5.352589288887259 24.766941184910024)"><path d="M-4.99 29.55 C-0.67 34.3, 6.87 40.32, 10.63 49.99 M-4.14 29.58 C0.94 35.91, 6.67 43.24, 11.59 50.83" stroke="#000000" stroke-width="1" fill="none"></path></g><g transform="translate(441.65117960205345 267.7209879226927) rotate(0 5.352589288887259 24.766941184910024)"><path d="M12.25 25.43 C11.52 31.44, 13.99 38.67, 10.63 49.99 M13.1 25.46 C12.53 32.98, 12.58 41.67, 11.59 50.83" stroke="#000000" stroke-width="1" fill="none"></path></g></g><g stroke-linecap="round" transform="translate(65.8333333333332 427) rotate(0 99.5 28.5)"><path d="M101.4 -0.26 C119.71 5.57, 139.4 12.86, 198.85 28.67 M100.99 0.01 C133.19 10.4, 167.44 19.74, 198.79 28.12 M200.11 28.5 C161.06 37.83, 125.6 50.55, 98.25 56.11 M199.4 29.9 C171.46 37.27, 141.65 44.97, 99.13 57.15 M99.84 56.8 C61.79 45.6, 21.96 36.41, -1.56 27.89 M100.38 56.67 C71.9 50.28, 41.48 41.23, 0.19 29.09 M-0.23 28.72 C37.72 19.62, 73.56 8.02, 100.16 0.37 M0.35 29.69 C29.83 20.43, 58.53 12.73, 99.51 0.52" stroke="#000000" stroke-width="1" fill="none"></path></g><g transform="translate(70.8333333333332 432.5) rotate(0 94.5 11.5)"><text x="94.5" y="17" font-family="Virgil, Segoe UI Emoji" font-size="20px" fill="#000000" text-anchor="middle" style="white-space: pre;" direction="ltr">B &gt; C</text></g><g stroke-linecap="round"><g transform="translate(294.010212808865 367.2716209298065) rotate(0 -60.59970852292719 25.81169560807365)"><path d="M0.17 -0.43 C-20.2 8.32, -101.36 44.27, -121.37 53.33 M-1.2 -1.71 C-21.28 6.61, -99.27 42.47, -119.13 51.44" stroke="#000000" stroke-width="1" fill="none"></path></g><g transform="translate(294.010212808865 367.2716209298065) rotate(0 -60.59970852292719 25.81169560807365)"><path d="M-98.45 28.91 C-104.83 39.2, -111.85 47.28, -117.84 51.76 M-98.1 29.51 C-102.69 34, -106.34 39.38, -119.04 51.08" stroke="#000000" stroke-width="1" fill="none"></path></g><g transform="translate(294.010212808865 367.2716209298065) rotate(0 -60.59970852292719 25.81169560807365)"><path d="M-89.94 47.59 C-99.63 50.93, -109.81 52.04, -117.84 51.76 M-89.59 48.19 C-95.87 48.91, -101.24 50.5, -119.04 51.08" stroke="#000000" stroke-width="1" fill="none"></path></g></g><g transform="translate(226.3333333333332 358) rotate(0 14 13)"><text x="0" y="18" font-family="Virgil, Segoe UI Emoji" font-size="20px" fill="#000000" text-anchor="start" style="white-space: pre;" direction="ltr">NO</text></g><g stroke-linecap="round" transform="translate(632.2448935955674 427) rotate(0 99.5 28.5)"><path d="M99.92 -0.71 C122.87 8.93, 146.3 13.19, 199.81 30.02 M99.71 0.18 C124.97 7.1, 150.18 14.87, 199.59 28.41 M197.19 28.44 C177.9 35, 155.96 42.13, 100.85 56.92 M199.01 29.15 C168.85 37.32, 138.62 44.45, 100.31 57.08 M98.45 56.12 C73.35 51.35, 44.84 43.55, 0.91 29.14 M99.61 56.94 C76.01 50.98, 52.43 43.39, 0.46 29.14 M1.48 30.85 C27.44 19.92, 55.08 14.8, 100.18 -1.54 M0.49 29.1 C26.54 21.63, 54 12.43, 99.18 -0.05" stroke="#000000" stroke-width="1" fill="none"></path></g><g transform="translate(637.2448935955674 432.5) rotate(0 94.5 11.5)"><text x="94.5" y="17" font-family="Virgil, Segoe UI Emoji" font-size="20px" fill="#000000" text-anchor="middle" style="white-space: pre;" direction="ltr">A &gt; C</text></g><g stroke-linecap="round"><g transform="translate(610.2115740229476 362.60237988317385) rotate(0 59.54060832151811 25.401313219433632)"><path d="M-0.43 -0.23 C19.66 8.23, 99.77 42.12, 119.51 50.7 M1.55 -1.4 C21.63 7.26, 99.15 43.77, 118.98 52.2" stroke="#000000" stroke-width="1" fill="none"></path></g><g transform="translate(610.2115740229476 362.60237988317385) rotate(0 59.54060832151811 25.401313219433632)"><path d="M88.67 51.3 C95.42 49.36, 102.81 52.07, 118.1 50.73 M88.89 49.11 C96.1 49.96, 104.38 50.43, 118.24 52.71" stroke="#000000" stroke-width="1" fill="none"></path></g><g transform="translate(610.2115740229476 362.60237988317385) rotate(0 59.54060832151811 25.401313219433632)"><path d="M97.1 32.59 C102.01 34.67, 107.58 41.42, 118.1 50.73 M97.32 30.4 C102.4 35.87, 108.6 40.95, 118.24 52.71" stroke="#000000" stroke-width="1" fill="none"></path></g></g><g transform="translate(640.7448935955674 354) rotate(0 18.5 13)"><text x="0" y="18" font-family="Virgil, Segoe UI Emoji" font-size="20px" fill="#000000" text-anchor="start" style="white-space: pre;" direction="ltr">YES</text></g><g stroke-linecap="round" transform="translate(10 536.1111111111111) rotate(0 48.5 17.5)"><path d="M0.32 -1.78 C35.26 -0.14, 71.19 -0.48, 98.39 1.75 M0.37 0.11 C30.48 0.82, 61.08 -0.96, 97.2 0.12 M97.27 -0.05 C96.42 11.82, 95.8 21.41, 96.28 36.4 M96.08 0.62 C96.95 11.25, 97.09 23.03, 96.96 35.22 M96.65 35.64 C78.03 35.11, 57.39 32.25, -0.83 35.71 M97.64 35.71 C59.54 35.33, 24.28 33.98, -0.57 34.82 M1.88 35.35 C0.85 22.54, 0 12.13, 1.42 -0.58 M0.34 34.82 C0.93 25.09, -0.26 16.65, 0.27 -0.61" stroke="#000000" stroke-width="1" fill="none"></path></g><g transform="translate(15 541.1111111111111) rotate(0 43.5 11.5)"><text x="43.5" y="17" font-family="Virgil, Segoe UI Emoji" font-size="20px" fill="#000000" text-anchor="middle" style="white-space: pre;" direction="ltr">return B</text></g><g stroke-linecap="round"><g transform="translate(71.34500999635765 452.9993489375697) rotate(0 -11.23916885556713 37.57704465839623)"><path d="M-0.17 0.85 C-3.58 13.1, -17.72 61.4, -21.18 73.55 M-1.71 0.25 C-5.25 12.67, -18.97 62.45, -22.31 74.9" stroke="#000000" stroke-width="1" fill="none"></path></g><g transform="translate(71.34500999635765 452.9993489375697) rotate(0 -11.23916885556713 37.57704465839623)"><path d="M-23.38 44.42 C-24.76 52.08, -23.89 60.17, -22.67 76.7 M-24.52 44.39 C-24.63 52.29, -24.17 59.99, -22.02 75.65" stroke="#000000" stroke-width="1" fill="none"></path></g><g transform="translate(71.34500999635765 452.9993489375697) rotate(0 -11.23916885556713 37.57704465839623)"><path d="M-3.58 49.82 C-9.76 56.14, -13.67 62.92, -22.67 76.7 M-4.72 49.79 C-9.9 56.42, -14.52 62.74, -22.02 75.65" stroke="#000000" stroke-width="1" fill="none"></path></g></g><g transform="translate(20 461.55555555555554) rotate(0 16 13)"><text x="0" y="18" font-family="Virgil, Segoe UI Emoji" font-size="20px" fill="#000000" text-anchor="start" style="white-space: pre;" direction="ltr">yes</text></g><g stroke-linecap="round"><g transform="translate(264.4444444444445 453.8888888888889) rotate(0 187.71826091464396 1.0026107814638294)"><path d="M0.52 0.27 C63.2 0.78, 313.78 2.33, 376.1 2.63 M-0.66 -0.63 C61.89 -0.46, 312.53 0.07, 375.43 0.73" stroke="#000000" stroke-width="1" fill="none"></path></g></g><g stroke-linecap="round" transform="translate(410.3888888888891 534.1666666666667) rotate(0 48.5 17.5)"><path d="M1.25 0.51 C21.66 -0.33, 43.74 -0.64, 95.43 0.07 M0.95 0.71 C23.26 0.06, 48.62 -0.85, 96.64 -0.77 M98.37 -0.98 C96.76 8.04, 97.68 19.18, 97.73 33 M96.28 0.19 C97.11 14.42, 96.97 26.06, 97.19 35.16 M96.11 36.25 C71.35 34.68, 47.73 36.19, 0.67 36.62 M98 35.64 C73.36 34.98, 49.26 33.28, 0.63 34.77 M1.98 35.07 C-1.75 23.47, 1.25 11.65, 1.92 0.49 M-0.56 35.65 C-1 24.33, -0.27 13.79, -0.37 -0.82" stroke="#000000" stroke-width="1" fill="none"></path></g><g transform="translate(415.3888888888891 539.1666666666667) rotate(0 43.5 11.5)"><text x="43.5" y="17" font-family="Virgil, Segoe UI Emoji" font-size="20px" fill="#000000" text-anchor="middle" style="white-space: pre;" direction="ltr">return C</text></g><g stroke-linecap="round"><g transform="translate(449.87340182427585 459.72098792269253) rotate(0 0.876332547728282 30.048360863687492)"><path d="M-0.83 -0.4 C-0.29 9.56, 2.1 50.44, 2.58 60.53 M0.94 -1.65 C1.39 8.39, 1.64 51.31, 1.66 61.75" stroke="#000000" stroke-width="1" fill="none"></path></g><g transform="translate(449.87340182427585 459.72098792269253) rotate(0 0.876332547728282 30.048360863687492)"><path d="M-9.4 33.69 C-7.06 39.79, -5.14 47.11, 2.64 63.12 M-9.11 34.18 C-5.28 44.99, 0.35 55.37, 2.64 60.89" stroke="#000000" stroke-width="1" fill="none"></path></g><g transform="translate(449.87340182427585 459.72098792269253) rotate(0 0.876332547728282 30.048360863687492)"><path d="M11.12 33.59 C8.47 39.57, 5.39 46.92, 2.64 63.12 M11.41 34.08 C7.1 44.96, 4.59 55.37, 2.64 60.89" stroke="#000000" stroke-width="1" fill="none"></path></g></g><g transform="translate(265.99999999999994 420.8888888888889) rotate(0 14 13)"><text x="0" y="18" font-family="Virgil, Segoe UI Emoji" font-size="20px" fill="#000000" text-anchor="start" style="white-space: pre;" direction="ltr">NO</text></g><g transform="translate(607.1111111111113 429.7777777777778) rotate(0 14 13)"><text x="0" y="18" font-family="Virgil, Segoe UI Emoji" font-size="20px" fill="#000000" text-anchor="start" style="white-space: pre;" direction="ltr">NO</text></g><g stroke-linecap="round" transform="translate(775.9444444444446 541.2781033089931) rotate(0 48.5 17.5)"><path d="M-0.3 -0.08 C27.64 1.39, 55.44 0.49, 98.44 1.02 M0.43 -0.06 C33 0.53, 66.08 -0.47, 97.16 0.26 M95.89 1.86 C96.45 8.22, 96.08 18.28, 98.23 35.34 M97.02 0.63 C97.6 6.38, 96.73 14.27, 97.48 34.23 M98.78 35.66 C65.28 37.12, 29.53 34.94, 0.05 34.25 M96.98 35.86 C64.04 34.95, 30.47 35.89, -0.4 35.17 M-1.23 34.7 C-0.24 25.94, -1.5 18.02, -1.62 1.71 M-0.7 35.69 C-0.31 21.35, 0.79 7.13, -0.65 0.73" stroke="#000000" stroke-width="1" fill="none"></path></g><g transform="translate(780.9444444444446 546.2781033089931) rotate(0 43.5 11.5)"><text x="43.5" y="17" font-family="Virgil, Segoe UI Emoji" font-size="20px" fill="#000000" text-anchor="middle" style="white-space: pre;" direction="ltr">return B</text></g><g stroke-linecap="round"><g transform="translate(837.2894544408023 458.1663411354515) rotate(0 -10.618080021609217 37.28472405615804)"><path d="M-0.05 0.01 C-3.3 12.37, -16.95 61.55, -20.44 74.01 M-1.53 -1.03 C-4.83 11.56, -17.8 63.29, -21.19 75.6" stroke="#000000" stroke-width="1" fill="none"></path></g><g transform="translate(837.2894544408023 458.1663411354515) rotate(0 -10.618080021609217 37.28472405615804)"><path d="M-23.99 46.39 C-23.23 52.17, -21.35 60.13, -20.34 76.91 M-24.22 46.28 C-23.36 54.31, -22.01 64.04, -21.49 74.61" stroke="#000000" stroke-width="1" fill="none"></path></g><g transform="translate(837.2894544408023 458.1663411354515) rotate(0 -10.618080021609217 37.28472405615804)"><path d="M-4.13 51.56 C-7.81 56.18, -10.38 62.98, -20.34 76.91 M-4.36 51.46 C-9.52 57.91, -14.17 66.08, -21.49 74.61" stroke="#000000" stroke-width="1" fill="none"></path></g></g><g transform="translate(853.7222222222224 465.61143664232634) rotate(0 16 13)"><text x="0" y="18" font-family="Virgil, Segoe UI Emoji" font-size="20px" fill="#000000" text-anchor="start" style="white-space: pre;" direction="ltr">yes</text></g><g stroke-linecap="round"><g transform="translate(73.33333333333343 570.5555555555557) rotate(0 192.14551038156372 48.565912235484745)"><path d="M-0.32 0.5 C63.87 16.43, 320.85 80.24, 384.61 96.27 M1.71 -0.28 C65.9 15.73, 320.48 81.06, 384.3 97.41" stroke="#000000" stroke-width="1" fill="none"></path></g></g><g stroke-linecap="round"><g transform="translate(457.77777777777777 572.7777777777779) rotate(0 1.9114393982446245 49.15469171812242)"><path d="M0.96 -0.69 C1.74 15.63, 3.4 81.47, 3.82 97.95 M0 1.57 C0.75 18, 2.66 82.73, 3.13 99" stroke="#000000" stroke-width="1" fill="none"></path></g></g><g stroke-linecap="round"><g transform="translate(825 586.6666666666667) rotate(0 -181.98737909924438 42.18785534774054)"><path d="M1.05 0.75 C-59.91 14.7, -304.04 70.67, -365.02 84.28 M0.14 0.09 C-60.52 13.65, -302.38 68.68, -362.8 82.52" stroke="#000000" stroke-width="1" fill="none"></path></g></g><g stroke-linecap="round"><g transform="translate(461.11111111111114 667.2222222222224) rotate(0 0.7165922790351829 19.390965702239896)"><path d="M-0.71 -0.25 C-0.5 6.13, 1.69 32.18, 2.15 38.75 M1.11 -1.43 C1.18 5.1, 1.63 33.2, 1.74 40.21" stroke="#000000" stroke-width="1" fill="none"></path></g><g transform="translate(461.11111111111114 667.2222222222224) rotate(0 0.7165922790351829 19.390965702239896)"><path d="M-5.61 23.72 C-2.77 30.4, 0.48 36.87, 2.77 42.09 M-5.23 21.54 C-3.1 29.97, 0.79 36.29, 2.7 40.68" stroke="#000000" stroke-width="1" fill="none"></path></g><g transform="translate(461.11111111111114 667.2222222222224) rotate(0 0.7165922790351829 19.390965702239896)"><path d="M7.7 23.51 C5.58 30.19, 3.86 36.74, 2.77 42.09 M8.08 21.32 C5.08 29.94, 3.83 36.35, 2.7 40.68" stroke="#000000" stroke-width="1" fill="none"></path></g></g><g stroke-linecap="round" transform="translate(410.00000000000006 716.1111111111114) rotate(0 54.5 32.777777777777715)"><path d="M31.09 3.88 C39.01 0.9, 50.4 -0.93, 60.05 -0.35 C69.71 0.23, 81.41 3.49, 89.01 7.35 C96.62 11.21, 102.66 17.11, 105.7 22.83 C108.75 28.55, 109.52 35.96, 107.28 41.67 C105.05 47.38, 99.53 53.18, 92.29 57.07 C85.06 60.96, 73.53 64.15, 63.89 65.02 C54.25 65.88, 43.44 64.69, 34.45 62.26 C25.46 59.84, 15.51 55.12, 9.93 50.49 C4.36 45.85, 1.36 40.16, 0.98 34.43 C0.6 28.7, 1.21 21.64, 7.64 16.09 C14.08 10.55, 32.63 3.87, 39.58 1.17 C46.53 -1.53, 49.12 -0.7, 49.34 -0.1 M40.22 2.45 C48.9 1.02, 62.95 1.66, 72.24 3.17 C81.54 4.67, 89.84 7.15, 95.96 11.46 C102.08 15.78, 107.98 23.08, 108.98 29.06 C109.97 35.04, 106.32 41.96, 101.92 47.36 C97.52 52.76, 90.93 58.57, 82.58 61.44 C74.24 64.31, 62.01 65.01, 51.85 64.57 C41.69 64.14, 29.71 62.05, 21.62 58.85 C13.53 55.64, 6.75 50.68, 3.29 45.32 C-0.17 39.96, -1.17 32.49, 0.86 26.68 C2.89 20.87, 8.76 14.67, 15.49 10.48 C22.22 6.29, 36.74 2.98, 41.27 1.55 C45.8 0.12, 42.56 1.22, 42.67 1.89" stroke="#000000" stroke-width="1" fill="none"></path></g><g transform="translate(415.00000000000006 736.3888888888891) rotate(0 49.5 11.5)"><text x="49.5" y="17" font-family="Virgil, Segoe UI Emoji" font-size="20px" fill="#000000" text-anchor="middle" style="white-space: pre;" direction="ltr">Stop</text></g></svg>